<?xml version="1.0" ?>

<!DOCTYPE svg  PUBLIC '-//W3C//DTD SVG 1.1//EN'  'http://www.w3.org/Graphics/SVG/1.1/DTD/svg11.dtd'>

<!-- Uploaded to: SVG Repo, www.svgrepo.com, Generator: SVG Repo Mixer Tools -->
<svg fill="#000000" width="800px" height="800px" viewBox="0 0 1069 1069" style="fill-rule:evenodd;clip-rule:evenodd;stroke-linejoin:round;stroke-miterlimit:2;" version="1.1" xml:space="preserve" xmlns="http://www.w3.org/2000/svg" xmlns:serif="http://www.serif.com/" xmlns:xlink="http://www.w3.org/1999/xlink">

<rect height="1066.67" id="Vga-computer-alt1" style="fill:none;" width="1066.67" x="1.167" y="0.143"/>

<g>

<path d="M1023.65,337.914c-0,-30.389 -12.072,-59.534 -33.561,-81.023c-21.488,-21.488 -50.633,-33.561 -81.022,-33.561l-625.001,0c-63.283,0 -114.583,51.301 -114.583,114.584c-0,105.378 -0,285.746 -0,391.125c-0,30.389 12.072,59.534 33.56,81.022c21.489,21.489 50.634,33.561 81.023,33.561c105.096,0 281.114,0 356.097,0c31.242,0 61.129,-12.756 82.742,-35.316l69.536,-72.584c9.826,-10.255 23.409,-16.053 37.609,-16.054l79.017,0c63.283,-0 114.583,-51.301 114.583,-114.584l-0,-267.17Zm-62.5,-0l-0,267.171c-0,28.764 -23.318,52.082 -52.082,52.083l-79.017,0c-31.241,0.001 -61.127,12.757 -82.74,35.316c0,0 -69.537,72.584 -69.537,72.584c-9.826,10.256 -23.41,16.054 -37.61,16.054l-356.098,0c-13.813,0 -27.061,-5.487 -36.828,-15.255c-9.768,-9.767 -15.255,-23.015 -15.255,-36.828l-0,-391.125c-0,-28.765 23.317,-52.083 52.081,-52.084c0.004,0 625.002,0 625.002,0c13.815,0.001 27.062,5.488 36.829,15.255c9.767,9.768 15.255,23.015 15.255,36.829Zm-651.09,403.895l113.894,0c17.248,0 31.25,-14.002 31.25,-31.25c0,-17.247 -14.002,-31.25 -31.25,-31.25l-113.894,0c-17.247,0 -31.25,14.003 -31.25,31.25c0,17.248 14.003,31.25 31.25,31.25Z" style="fill-opacity:0.5;"/>

<path d="M149.084,970.976l-0,-587.779c-0,-17.248 -14.003,-31.25 -31.25,-31.25c-17.248,-0 -31.25,14.002 -31.25,31.25l-0,587.779c-0,17.248 14.002,31.25 31.25,31.25c17.247,0 31.25,-14.002 31.25,-31.25Zm636.625,-747.646l-501.639,0c-63.283,0 -114.583,51.301 -114.583,114.584c-0,105.378 -0,285.746 -0,391.125c-0,30.389 12.072,59.534 33.56,81.022c21.489,21.489 50.634,33.561 81.023,33.561c105.096,0 281.114,0 356.097,0c31.242,0 61.129,-12.756 82.742,-35.316l69.536,-72.584c9.826,-10.255 23.409,-16.053 37.609,-16.054l79.017,0c63.282,-0 114.582,-51.3 114.583,-114.583l-0,-133c-0,-17.247 -14.003,-31.25 -31.25,-31.25c-17.248,0 -31.25,14.003 -31.25,31.25l-0,132.998c-0.001,28.767 -23.318,52.084 -52.082,52.085l-79.017,0c-31.241,0.001 -61.127,12.757 -82.74,35.316c0,0 -69.537,72.584 -69.537,72.584c-9.826,10.256 -23.41,16.054 -37.61,16.054l-356.098,0c-13.813,0 -27.061,-5.487 -36.828,-15.255c-9.768,-9.767 -15.255,-23.015 -15.255,-36.828l-0,-391.125c-0,-28.765 23.317,-52.083 52.081,-52.084c0.003,0 501.641,0 501.641,0c17.247,0 31.25,-14.002 31.25,-31.25c-0,-17.247 -14.003,-31.25 -31.25,-31.25Zm-54.82,317.613c0.789,2.956 1.199,6.026 1.199,9.138c-0,0.009 -0,0.018 -0,0.026c-0,9.403 -3.736,18.42 -10.384,25.069c-6.649,6.648 -15.666,10.384 -25.069,10.383l-0.026,0c-9.403,0.001 -18.42,-3.735 -25.069,-10.383c-12.195,-12.196 -31.998,-12.196 -44.194,-0c-12.196,12.196 -12.196,31.998 0,44.194c18.37,18.37 43.284,28.69 69.263,28.689l0.026,0c25.979,0.001 50.893,-10.319 69.263,-28.689c18.37,-18.37 28.69,-43.284 28.69,-69.263c-0,-0.008 -0,-0.017 -0,-0.026c-0,-13.724 -2.88,-27.15 -8.305,-39.47c2.124,-2.09 4.519,-3.921 7.143,-5.436c0.008,-0.005 0.016,-0.009 0.023,-0.014c8.143,-4.701 17.82,-5.975 26.902,-3.541c9.082,2.433 16.826,8.375 21.527,16.518c0.004,0.007 0.009,0.015 0.013,0.023c4.701,8.142 5.975,17.819 3.542,26.901c-4.464,16.66 5.437,33.81 22.097,38.274c16.66,4.464 33.809,-5.438 38.273,-22.097c6.724,-25.094 3.204,-51.83 -9.785,-74.328c-0.005,-0.008 -0.009,-0.016 -0.014,-0.023c-12.989,-22.498 -34.383,-38.915 -59.477,-45.639c-25.093,-6.724 -51.83,-3.204 -74.328,9.786c-0.007,0.004 -0.015,0.009 -0.023,0.013c-11.829,6.83 -21.977,15.983 -29.921,26.779c-3.017,-0.795 -5.943,-1.992 -8.694,-3.58c-0.007,-0.004 -0.015,-0.009 -0.023,-0.013c-8.143,-4.701 -14.084,-12.445 -16.518,-21.527c-2.433,-9.082 -1.159,-18.759 3.542,-26.902c0.004,-0.007 0.009,-0.015 0.013,-0.023c4.701,-8.143 12.445,-14.084 21.527,-16.518c16.66,-4.464 26.561,-21.613 22.097,-38.273c-4.464,-16.66 -21.614,-26.561 -38.273,-22.097c-25.094,6.724 -46.488,23.14 -59.477,45.638c-0.005,0.008 -0.009,0.016 -0.014,0.023c-12.989,22.498 -16.509,49.235 -9.785,74.328c6.724,25.094 23.14,46.488 45.638,59.477c0.008,0.005 0.016,0.009 0.023,0.014c11.957,6.903 25.111,11.132 38.578,12.569Zm-333.333,-12.097c0.789,2.955 1.198,6.025 1.198,9.137c0,0.009 0,0.018 0,0.027c0,9.403 -3.735,18.42 -10.383,25.068c-6.649,6.649 -15.666,10.384 -25.069,10.384l-0.027,0c-9.402,0 -18.419,-3.735 -25.068,-10.384c-12.196,-12.195 -31.998,-12.195 -44.194,0c-12.196,12.196 -12.196,31.999 -0,44.195c18.369,18.369 43.284,28.689 69.262,28.689l0.027,0c25.979,0 50.893,-10.32 69.263,-28.689c18.369,-18.37 28.689,-43.284 28.689,-69.263c0,-0.009 0,-0.018 0,-0.027c0,-13.723 -2.88,-27.149 -8.304,-39.469c2.123,-2.091 4.519,-3.922 7.143,-5.437c0.008,-0.004 0.015,-0.009 0.023,-0.013c8.143,-4.701 17.82,-5.975 26.902,-3.542c9.082,2.434 16.825,8.375 21.527,16.518c0.004,0.008 0.008,0.016 0.013,0.023c4.701,8.143 5.975,17.82 3.542,26.902c-4.464,16.66 5.437,33.809 22.097,38.273c16.659,4.464 33.809,-5.437 38.273,-22.097c6.724,-25.093 3.204,-51.83 -9.786,-74.328c-0.004,-0.007 -0.008,-0.015 -0.013,-0.023c-12.989,-22.498 -34.384,-38.914 -59.477,-45.638c-25.093,-6.724 -51.83,-3.204 -74.328,9.785c-0.008,0.005 -0.015,0.009 -0.023,0.014c-11.829,6.829 -21.977,15.982 -29.921,26.779c-3.018,-0.795 -5.943,-1.992 -8.694,-3.58c-0.008,-0.005 -0.015,-0.009 -0.023,-0.014c-8.143,-4.701 -14.085,-12.444 -16.518,-21.526c-2.434,-9.082 -1.16,-18.759 3.542,-26.902c0.004,-0.008 0.008,-0.015 0.013,-0.023c4.701,-8.143 12.445,-14.085 21.527,-16.518c16.659,-4.464 26.561,-21.614 22.097,-38.273c-4.464,-16.66 -21.614,-26.561 -38.274,-22.098c-25.093,6.724 -46.487,23.141 -59.477,45.639c-0.004,0.008 -0.009,0.015 -0.013,0.023c-12.989,22.498 -16.509,49.235 -9.786,74.328c6.724,25.093 23.141,46.488 45.639,59.477c0.008,0.004 0.015,0.009 0.023,0.013c11.957,6.904 25.111,11.132 38.578,12.57Z"/>

</g>

</svg>